<svg width="14" height="13" viewBox="0 0 14 13" fill="none" xmlns="http://www.w3.org/2000/svg">
<path d="M13.9537 2.04899C13.3446 1.8522 12.2015 2.28089 12.2015 2.28089L9.84668 3.07847C9.81692 3.0886 9.78468 3.07436 9.77104 3.04525C9.4056 2.28026 8.63688 1.75318 7.74728 1.75318C6.85769 1.75318 6.07874 2.2869 5.71608 3.05949C5.71546 3.06075 5.71391 3.06107 5.71267 3.06044L1.57216 0.000140611C1.57216 0.000140611 1.5703 -0.000175764 1.56999 0.000140611C0.540291 1.05177 0.454741 2.03855 1.3059 3.17497C1.30714 3.17686 1.30559 3.1794 1.30342 3.17845L0.416615 2.88074C0.416615 2.88074 0.414756 2.88074 0.414136 2.88169C-0.50553 4.43098 0.181662 5.46141 1.73428 6.23558C1.73676 6.23685 1.73552 6.24033 1.73304 6.24001L0.526033 6.04228C0.526033 6.04228 0.523863 6.04291 0.523553 6.04417C0.11316 8.10662 1.81983 9.02886 3.72394 9.01462C3.72518 9.01462 3.72642 9.01589 3.72611 9.01715C3.30549 11.7554 5.5267 12.9997 6.84808 13C6.84932 13 6.84994 12.9991 6.84994 12.9978L6.84901 12.0591C6.84901 12.0575 6.85087 12.0563 6.85211 12.0572C7.58207 12.409 8.07492 12.0202 8.50515 11.5741C8.50608 11.5731 8.50608 11.5719 8.50515 11.5712L7.57742 10.5452C7.57742 10.5452 7.5768 10.5418 7.57866 10.5414C9.30982 10.2709 10.6358 8.74444 10.6358 6.90187C10.6358 6.29917 10.4936 5.72432 10.2422 5.21907C10.0668 4.86663 9.98585 4.47495 9.99763 4.0798C9.99763 4.06999 9.99794 4.0605 9.99794 4.05133C9.99794 3.96401 10.0451 3.88396 10.1207 3.84315C10.1207 3.84315 11.1854 3.16579 11.9172 2.82917C12.6491 2.49255 13.1128 2.26096 13.95 2.16984C14.021 2.16415 14.0111 2.06512 13.9537 2.0493V2.04899Z" fill="white"/>
</svg>
