<svg width="150" height="150" viewBox="0 0 150 150" fill="none" xmlns="http://www.w3.org/2000/svg">
<circle cx="75" cy="75" r="75" fill="#D9D9D9"/>
<path d="M75 0C55.5486 -2.31956e-07 36.858 7.5571 22.8728 21.0764C8.88758 34.5957 0.701802 53.0197 0.0430258 72.4599C-0.61575 91.9002 6.30401 110.836 19.3419 125.271C32.3798 139.706 50.5159 148.511 69.9228 149.828C89.3296 151.145 108.489 144.87 123.357 132.329C138.226 119.787 147.64 101.96 149.613 82.6086C151.586 63.2575 145.964 43.8967 133.934 28.6121C121.903 13.3276 104.404 3.31498 85.1312 0.687425L75 75L75 0Z" fill="#1C88C7"/>
<g clip-path="url(#clip0_53_119)">
<path d="M41.6987 106.619L35 35.1342L115 35.2779L107.917 106.619L75.3019 114.866L41.6987 106.619Z" fill="#1B73BA"/>
<path d="M75.302 107.962V41.9423L108.247 42.0381L102.372 101.106L75.302 107.962Z" fill="#1C88C7"/>
<path d="M100.065 50.3809H49.3857L50.7586 59.0103H74.8077L51.1432 67.8804L52.5154 76.2225H87.3819L86.1186 87.8727L74.3135 89.8867L63.607 87.4896L62.7832 80.873H52.9548L54.2722 94.6335L75.3567 99.7634L95.5632 94.1541L98.1438 67.2567H76.7838L100.064 58.8188L100.065 50.3809Z" fill="white"/>
</g>
<defs>
<clipPath id="clip0_53_119">
<rect width="80" height="80" fill="white" transform="translate(35 35)"/>
</clipPath>
</defs>
</svg>
