<svg width="150" height="150" viewBox="0 0 150 150" fill="none" xmlns="http://www.w3.org/2000/svg">
<circle cx="75" cy="75" r="75" fill="#D9D9D9"/>
<path d="M75 0C58.8211 -1.92932e-07 43.0759 5.23176 30.1142 14.9145C17.1526 24.5972 7.66962 38.2117 3.08044 53.7262C-1.50874 69.2406 -0.958008 85.8231 4.65045 100.999C10.2589 116.175 20.6244 129.13 34.1998 137.931C47.7753 146.733 63.833 150.908 79.9763 149.835C96.1196 148.761 111.483 142.496 123.774 131.975C136.064 121.454 144.623 107.24 148.173 91.4551C151.722 75.6703 150.073 59.1609 143.47 44.3907L75 75L75 0Z" fill="#1C88C7"/>
<g clip-path="url(#clip0_53_119)">
<path d="M41.6987 106.619L35 35.1342L115 35.2779L107.917 106.619L75.3019 114.866L41.6987 106.619Z" fill="#1B73BA"/>
<path d="M75.302 107.962V41.9423L108.247 42.0381L102.372 101.106L75.302 107.962Z" fill="#1C88C7"/>
<path d="M100.065 50.3809H49.3857L50.7586 59.0103H74.8077L51.1432 67.8804L52.5154 76.2225H87.3819L86.1186 87.8727L74.3135 89.8867L63.607 87.4896L62.7832 80.873H52.9548L54.2722 94.6335L75.3567 99.7634L95.5632 94.1541L98.1438 67.2567H76.7838L100.064 58.8188L100.065 50.3809Z" fill="white"/>
</g>
<defs>
<clipPath id="clip0_53_119">
<rect width="80" height="80" fill="white" transform="translate(35 35)"/>
</clipPath>
</defs>
</svg>
