<svg width="50" height="55" viewBox="0 0 50 55" fill="none" xmlns="http://www.w3.org/2000/svg">
<path d="M6.25 6.875C4.83401 6.8749 3.45996 7.4037 2.35288 8.37481C1.2458 9.34592 0.471307 10.7018 0.15625 12.2203L25 28.9231L49.8438 12.2203C49.5287 10.7018 48.7542 9.34592 47.6471 8.37481C46.54 7.4037 45.166 6.8749 43.75 6.875H6.25ZM0 40.5625V16.1494L18.1344 28.3388L0 40.5625ZM21.1281 30.3531L0.596875 44.1925C1.1037 45.3697 1.90413 46.3644 2.90496 47.0606C3.90579 47.7568 5.06583 48.1259 6.25 48.125H25.8C25.2688 46.4688 24.9982 44.725 25 42.9688C24.9979 40.7106 25.4462 38.4795 26.3133 36.4328C27.1805 34.386 28.4454 32.5735 30.0187 31.1231L28.8719 30.3497L25 32.9519L21.1281 30.3531ZM50 33.2441V16.1459L31.8656 28.3353L32.9219 29.0503C34.8352 28.0273 36.9352 27.4971 39.0625 27.5C43.4813 27.5 47.4219 29.7412 50 33.2441Z" fill="#2933B9"/>
<path d="M49.4812 42.0888C49.4812 46.1038 47.6781 49.0497 44.5219 49.0497C42.95 49.0497 41.3906 48.2659 41.0219 46.8222H40.8875C40.5187 48.2522 39.1906 49.0325 37.7156 49.0325C35.3094 49.0325 33.7813 47.1694 33.7813 44.1031V42.2847C33.7813 39.3834 35.2844 37.4722 37.7187 37.4722C39.5469 37.4722 40.4375 38.6169 40.6969 39.6378H40.7906V37.6853H43.6188V45.2134C43.6188 46.1484 44.1813 46.6572 44.9031 46.6572C45.8875 46.6572 46.9 45.2306 46.9 41.8791V41.4734C46.9 37.0837 43.9313 33.4778 39.1375 33.4778H39.0125C34.0688 33.4778 30.7625 37.1456 30.7625 42.8416V43.3812C30.7625 49.7991 34.6281 52.5044 38.7937 52.5044H38.9344C40.5187 52.5044 41.8562 52.2638 42.6219 51.8856V54.3984C41.9375 54.7422 40.6125 55 38.7563 55H38.6187C32.6187 55 28.125 50.9438 28.125 43.4706V42.735C28.125 35.6125 32.5656 30.9375 39.0156 30.9375H39.125C45.75 30.9375 49.4812 35.8531 49.4812 41.3669V42.0888ZM36.8562 42.8106V43.5909C36.8562 45.6053 37.5656 46.3409 38.6719 46.3409C39.6406 46.3409 40.4344 45.7566 40.4344 43.7869V42.5253C40.4344 40.7516 39.575 40.0916 38.6469 40.0916C37.5656 40.0916 36.8562 40.9338 36.8562 42.8106Z" fill="#2933B9"/>
</svg>
