<svg width="150" height="150" viewBox="0 0 150 150" fill="none" xmlns="http://www.w3.org/2000/svg">
<circle cx="75" cy="75" r="75" fill="#D9D9D9"/>
<path d="M75 0C57.6484 -2.06916e-07 40.8335 6.01645 27.4205 17.0242C14.0075 28.032 4.82624 43.35 1.4411 60.3682C-1.94403 77.3865 0.676395 95.052 8.8559 110.355C17.0354 125.658 30.2679 137.651 46.2987 144.291C62.3296 150.931 80.1669 151.807 96.7713 146.771C113.376 141.734 127.72 131.095 137.36 116.668C147 102.24 151.34 84.9168 149.639 67.6487C147.938 50.3806 140.302 34.2365 128.033 21.967L75 75L75 0Z" fill="#2D353B"/>
<path d="M105.283 101.932L65.2767 108.188L54.1834 109.93C51.1317 110.41 48.2584 108.373 47.7734 105.378L40.9551 63.53L103.11 53.7983L109.93 95.645C110.415 98.6417 108.335 101.452 105.283 101.932Z" fill="#CFD8DC"/>
<path d="M100.92 43.97C100.067 41.0584 96.9582 39.3784 93.9765 40.2167L44.0715 54.255C41.0899 55.0934 39.3649 58.135 40.2165 61.0467L40.9532 63.53L101.657 46.4534L100.92 43.97Z" fill="#455A64"/>
<path d="M103.117 53.8L95.6168 62.3333L95.5001 62.4667L86.6001 63.85L86.7168 63.7333L94.2168 55.1833L103.117 53.8Z" fill="#455A64"/>
<path d="M85.3165 56.5833L77.8165 65.1166L68.9165 66.5166L76.4332 57.9666L85.3165 56.5833Z" fill="#455A64"/>
<path d="M67.45 59.3834L59.9666 67.9167L51.1333 69.3L58.6333 60.7667L67.45 59.3834Z" fill="#455A64"/>
<path d="M49.7502 62.15L42.2669 70.6834L42.1502 70.8167L42.1335 70.7167L40.9502 63.5334L49.7502 62.15Z" fill="#455A64"/>
<path d="M101.655 46.455L89.8799 41.3683L93.9749 40.2167C94.4965 40.07 95.0199 40.005 95.5332 40.005C97.9682 40.005 100.217 41.5617 100.917 43.9683L101.655 46.455Z" fill="#CFD8DC"/>
<path d="M92.9868 48.8867L84.3285 51.33L72.5635 46.2433L81.2135 43.8H81.2218L92.9868 48.8867Z" fill="#CFD8DC"/>
<path d="M75.6618 53.7617L67.0035 56.205L55.2285 51.1083L63.8968 48.675L75.6618 53.7617Z" fill="#CFD8DC"/>
<path d="M58.3451 58.6367L49.6784 61.0783L40.5718 57.135C41.2434 55.78 42.4751 54.7017 44.0701 54.25L46.5701 53.55L58.3451 58.6367Z" fill="#CFD8DC"/>
<path d="M76.2999 85.4833L68.7166 103.433L53.5333 105.817C52.7333 105.933 51.9999 105.45 51.8833 104.7L51.7666 103.967L76.2999 85.4833Z" fill="#64DD17"/>
<path d="M87.8665 100.433L78.4331 101.917L76.2998 85.4833L87.8665 100.433Z" fill="#1E88E5"/>
<path d="M105.816 96.3167C105.883 96.7333 105.733 97.05 105.583 97.25C105.55 97.3167 105.483 97.3833 105.383 97.4667L76.2998 85.4833L103.483 82.0167L105.816 96.3167Z" fill="#AB47BC"/>
<path d="M76.2997 85.4833L51.7664 103.967L49.3164 88.9167L76.2997 85.4833Z" fill="#B2FF59"/>
<path d="M78.433 101.917L68.7163 103.433L76.2996 85.4833L78.433 101.917Z" fill="#00ACC1"/>
<path d="M105.383 97.4667C105.216 97.6167 104.983 97.7667 104.633 97.8167L87.8665 100.433L76.2998 85.4833L105.383 97.4667Z" fill="#7C4DFF"/>
<path d="M76.2999 85.4834L49.3165 88.9167L46.7832 73.35L76.2999 85.4834Z" fill="#FFEA00"/>
<path d="M76.2946 85.4817L64.7446 70.535L74.1596 69.06L76.2946 85.4817Z" fill="#FFA726"/>
<path d="M76.2999 85.4834L46.7832 73.35L64.7449 70.535L76.2999 85.4834Z" fill="#FDD835"/>
<path d="M103.483 82.0167L76.2998 85.4834L101.016 66.85L103.483 82.0167Z" fill="#E91E63"/>
<path d="M83.9247 67.5317L76.2947 85.4817L74.1597 69.06L83.9247 67.5317Z" fill="#FF7043"/>
<path d="M101.016 66.85L76.2998 85.4834L83.9331 67.5334L100.7 64.9L101.016 66.85Z" fill="#F44336"/>
<path d="M65.375 93.7133C66.8183 95.6233 68.7367 97.1517 70.9717 98.0967L76.3 85.4833L65.375 93.7133Z" fill="#76FF03"/>
<path d="M78.0603 99.0467C80.532 98.7283 82.792 97.755 84.6686 96.3017L76.3003 85.4833L78.0603 99.0467Z" fill="#64B5F6"/>
<path d="M88.962 90.7C89.6286 89.0883 90.0003 87.3233 90.0003 85.4717C90.0003 84.8883 89.952 84.3166 89.8803 83.7516L76.3003 85.4833L88.962 90.7Z" fill="#BA68C8"/>
<path d="M62.7217 87.2117C63.03 89.6367 63.97 91.8567 65.375 93.715L76.3 85.485L62.7217 87.2117Z" fill="#CCFF90"/>
<path d="M70.9717 98.0967C72.61 98.7883 74.41 99.1717 76.3 99.1717C76.8983 99.1717 77.4833 99.12 78.06 99.0467L76.3 85.4833L70.9717 98.0967Z" fill="#4DD0E1"/>
<path d="M84.6703 96.3017C86.5486 94.8483 88.042 92.9267 88.962 90.7L76.3003 85.4833L84.6703 96.3017Z" fill="#9575CD"/>
<path d="M76.2951 85.4816L63.6268 80.2733C62.9684 81.8766 62.6001 83.63 62.6001 85.4717C62.6001 86.0617 62.6501 86.64 62.7218 87.2116L76.3001 85.4833L76.2951 85.4816Z" fill="#FFEE58"/>
<path d="M74.5283 71.8983C72.0583 72.2183 69.8 73.1933 67.9233 74.6466L76.295 85.4766L74.5283 71.8983Z" fill="#FFB74D"/>
<path d="M67.9236 74.6467C66.0403 76.1067 64.5453 78.0367 63.627 80.2733L76.2953 85.4817L67.9236 74.6467Z" fill="#FFEB3B"/>
<path d="M76.3003 85.4833L89.8803 83.7516C89.5753 81.325 88.6353 79.1016 87.2336 77.2416L76.3003 85.4833Z" fill="#F06292"/>
<path d="M74.5283 71.8983L76.295 85.4767L76.2967 85.4783L81.66 72.8617C80.0133 72.16 78.2017 71.7717 76.3 71.7717C75.6983 71.7717 75.11 71.8233 74.5283 71.8983Z" fill="#FF8A65"/>
<path d="M87.2336 77.2417C85.7986 75.3383 83.8886 73.8133 81.667 72.865L76.3003 85.4833L87.2336 77.2417Z" fill="#FF5252"/>
<path d="M76.2999 85.48L72.8765 93.5734C71.4332 92.965 70.2032 91.9884 69.2832 90.7717L76.2999 85.48Z" fill="#BAFF81"/>
<path d="M81.6765 92.4267C80.4731 93.36 79.0165 93.9834 77.4315 94.1817L76.2998 85.48L81.6765 92.4267Z" fill="#90CAF9"/>
<path d="M85.0998 85.4667C85.0998 86.655 84.8598 87.8017 84.4348 88.8334L76.2998 85.48L85.0298 84.3617C85.0715 84.7317 85.0998 85.0984 85.0998 85.4667Z" fill="#CE93D8"/>
<path d="M76.3001 85.48L69.2834 90.7717C68.3784 89.5834 67.7701 88.14 67.5718 86.5834L76.3001 85.48Z" fill="#DBFFB1"/>
<path d="M77.4315 94.1817C77.0631 94.2384 76.6815 94.2667 76.2998 94.2667C75.0831 94.2667 73.9231 94.0117 72.8765 93.5734L76.2998 85.48L77.4315 94.1817Z" fill="#80DEEA"/>
<path d="M84.4348 88.8334C83.8398 90.2617 82.8931 91.5067 81.6765 92.4267L76.2998 85.48L84.4348 88.8334Z" fill="#B39DDB"/>
<path d="M76.3 85.48L67.57 86.5833C67.5283 86.2167 67.5 85.8483 67.5 85.4667C67.5 84.2783 67.74 83.175 68.165 82.1417L76.3 85.48Z" fill="#FFF59D"/>
<path d="M76.3002 85.48L70.9102 78.505C72.1135 77.5717 73.5702 76.9483 75.1685 76.75L76.3002 85.48Z" fill="#FFCC80"/>
<path d="M76.3 85.48L68.165 82.1267C68.745 80.6983 69.6934 79.4533 70.91 78.505L76.3 85.48Z" fill="#FFF176"/>
<path d="M85.0298 84.3634L76.2998 85.4817L83.3315 80.1767C84.2231 81.3634 84.8315 82.8067 85.0298 84.3634Z" fill="#F48FB1"/>
<path d="M79.7518 77.3734L76.3001 85.48L75.1685 76.75C75.5368 76.695 75.9185 76.6667 76.3001 76.6667C77.5318 76.6667 78.6918 76.9217 79.7518 77.3734Z" fill="#FFAB91"/>
<path d="M83.3315 80.175L76.2998 85.48L79.7515 77.3734C81.1815 77.9817 82.4115 78.9584 83.3315 80.175Z" fill="#FF8A80"/>
<path d="M76.2986 85.4833L74.8053 89.0033C74.1886 88.7433 73.6436 88.3167 73.252 87.7817L76.2986 85.4833Z" fill="#E5FFC7"/>
<path d="M78.6333 88.505C78.1117 88.9084 77.4833 89.18 76.785 89.2634L76.2983 85.4817L78.6333 88.505Z" fill="#BBDEFB"/>
<path d="M80.115 85.4834C80.115 86.005 80.0083 86.4917 79.83 86.9417L76.2983 85.4834L80.08 84.9967C80.1017 85.1517 80.115 85.3167 80.115 85.4834Z" fill="#E1BEE7"/>
<path d="M76.2987 85.4833L73.252 87.7833C72.8487 87.2617 72.5887 86.6333 72.5054 85.9583L76.2987 85.4833Z" fill="#E5FFC7"/>
<path d="M76.7837 89.265C76.6304 89.2883 76.4637 89.3 76.297 89.3C75.7754 89.3 75.2654 89.1933 74.8037 89.0033L76.297 85.4833L76.7837 89.265Z" fill="#B2EBF2"/>
<path d="M79.83 86.9417C79.57 87.5583 79.155 88.1033 78.6333 88.5067L76.2983 85.4833L79.83 86.9417Z" fill="#D1C4E9"/>
<path d="M76.2985 85.4834L72.5052 85.9567C72.4819 85.8034 72.4702 85.6484 72.4702 85.4834C72.4702 84.9617 72.5769 84.4767 72.7552 84.025L76.2985 85.4834Z" fill="#FFF9C4"/>
<path d="M76.2984 85.4833L73.9634 82.46C74.485 82.0567 75.1134 81.785 75.8117 81.7017L76.2984 85.4833Z" fill="#FFE0B2"/>
<path d="M76.2987 85.4834L72.7554 84.025C73.0154 83.4084 73.4304 82.8634 73.9637 82.46L76.2987 85.4834Z" fill="#FFF9C4"/>
<path d="M80.0785 84.9967L76.2969 85.4834L79.3435 83.1833C79.7352 83.705 79.9952 84.3217 80.0785 84.9967Z" fill="#F8BBD0"/>
<path d="M77.792 81.9634L76.2987 85.4834L75.812 81.7017C75.9653 81.6784 76.132 81.6667 76.2987 81.6667C76.8187 81.6667 77.3287 81.7734 77.792 81.9634Z" fill="#FFCCBC"/>
<path d="M79.3435 83.1834L76.2969 85.4834L77.7902 81.9634C78.4069 82.2234 78.9402 82.65 79.3435 83.1834Z" fill="#FFCDD2"/>
</svg>
