<svg width="150" height="150" viewBox="0 0 150 150" fill="none" xmlns="http://www.w3.org/2000/svg">
<circle cx="75" cy="75" r="75" fill="#D9D9D9"/>
<path d="M75 0C57.6484 -2.06916e-07 40.8335 6.01645 27.4205 17.0242C14.0075 28.032 4.82624 43.35 1.4411 60.3682C-1.94403 77.3865 0.676395 95.052 8.8559 110.355C17.0354 125.658 30.2679 137.651 46.2987 144.291C62.3296 150.931 80.1669 151.807 96.7713 146.771C113.376 141.734 127.72 131.095 137.36 116.668C147 102.24 151.34 84.9168 149.639 67.6487C147.938 50.3806 140.302 34.2365 128.033 21.967L75 75L75 0Z" fill="#0ACF83"/>
<rect x="35" y="35" width="80" height="80" rx="18" fill="white"/>
<path d="M63.3424 110C66.4366 110 69.4041 108.771 71.592 106.583C73.78 104.395 75.0091 101.428 75.0091 98.3334V86.6667H63.3424C60.2483 86.6667 57.2808 87.8958 55.0929 90.0838C52.9049 92.2717 51.6758 95.2392 51.6758 98.3334C51.6758 101.428 52.9049 104.395 55.0929 106.583C57.2808 108.771 60.2483 110 63.3424 110Z" fill="#0ACF83"/>
<path d="M51.6758 75C51.6758 71.9058 52.9049 68.9383 55.0929 66.7504C57.2808 64.5625 60.2483 63.3333 63.3424 63.3333H75.0091V86.6666H63.3424C60.2483 86.6666 57.2808 85.4375 55.0929 83.2496C52.9049 81.0616 51.6758 78.0942 51.6758 75Z" fill="#A259FF"/>
<path d="M51.6758 51.6667C51.6758 48.5741 52.9037 45.608 55.0896 43.4203C57.2756 41.2326 60.2407 40.0024 63.3333 40H75V63.3333H63.3424C60.2483 63.3333 57.2808 62.1042 55.0929 59.9162C52.9049 57.7283 51.6758 54.7609 51.6758 51.6667Z" fill="#F24E1E"/>
<path d="M75.0093 40H86.6759C89.7701 40 92.7376 41.2292 94.9255 43.4171C97.1135 45.605 98.3426 48.5725 98.3426 51.6667C98.3426 54.7609 97.1135 57.7283 94.9255 59.9162C92.7376 62.1042 89.7701 63.3333 86.6759 63.3333H75.0093V40Z" fill="#FF7262"/>
<path d="M98.3426 75C98.3426 78.0942 97.1135 81.0616 94.9255 83.2496C92.7376 85.4375 89.7701 86.6666 86.6759 86.6666C83.5818 86.6666 80.6143 85.4375 78.4264 83.2496C76.2384 81.0616 75.0093 78.0942 75.0093 75C75.0093 71.9058 76.2384 68.9383 78.4264 66.7504C80.6143 64.5625 83.5818 63.3333 86.6759 63.3333C89.7701 63.3333 92.7376 64.5625 94.9255 66.7504C97.1135 68.9383 98.3426 71.9058 98.3426 75Z" fill="#1ABCFE"/>
</svg>
