<svg width="150" height="150" viewBox="0 0 150 150" fill="none" xmlns="http://www.w3.org/2000/svg">
<circle cx="75" cy="75" r="75" fill="#D9D9D9"/>
<circle cx="75" cy="75" r="75" fill="#EF652A"/>
<g clip-path="url(#clip0_53_114)">
<path d="M41.6987 106.62L35 35.1336L115 35.2773L107.917 106.62L75.3019 114.866L41.6987 106.62Z" fill="#E34F26"/>
<path d="M75.302 107.962V41.9418L108.247 42.0375L102.372 101.106L75.302 107.962Z" fill="#EF652A"/>
<path d="M99.1871 58.4351L100.12 49.7087H49.4407L52.2407 76.4625H87.2168L85.8452 87.8732L74.6439 90.5097L63.2781 87.6332L62.6742 80.8251H52.6252L53.9981 94.7292L74.6433 99.7634L95.4529 94.7292L98.2529 67.5924H61.5207L60.4775 58.4351H99.1871Z" fill="white"/>
</g>
<defs>
<clipPath id="clip0_53_114">
<rect width="80" height="80" fill="white" transform="translate(35 35)"/>
</clipPath>
</defs>
</svg>
