<svg width="150" height="150" viewBox="0 0 150 150" fill="none" xmlns="http://www.w3.org/2000/svg">
<circle cx="75" cy="75" r="75" fill="#D9D9D9"/>
<path d="M75 0C61.1683 -1.64941e-07 47.606 3.82497 35.8125 11.052C24.0191 18.2791 14.4539 28.6267 8.17443 40.9509C1.895 53.275 -0.854051 67.0956 0.231221 80.8847C1.31649 94.6738 6.19381 107.894 14.3239 119.084C22.4541 130.274 33.5203 138.998 46.2991 144.291C59.078 149.584 73.0717 151.24 86.7331 149.077C100.395 146.913 113.191 141.013 123.709 132.03C134.227 123.047 142.055 111.33 146.329 98.1756L75 75L75 0Z" fill="#FFDE25"/>
<g clip-path="url(#clip0_53_130)">
<path d="M41.6987 106.62L35 35.1336L115 35.2773L107.917 106.62L75.3019 114.866L41.6987 106.62Z" fill="#E9CA32"/>
<path d="M75.302 107.962V41.9418L108.247 42.0375L102.372 101.106L75.302 107.962Z" fill="#FFDE25"/>
<path d="M71.7742 49.7809H63.0645V93.7226L56.2903 92.5958V86.6806L48.2258 85.5539V98.7928L71.7742 104.145V49.7809ZM78.3078 49.7809H102.419L100.806 58.203H87.5123V72.0238H100.806L99.1936 99.9195L78.3078 104.145V95.4126L92.4194 91.1875L93.2342 79.6387L78.3078 81.5259V49.7809Z" fill="white"/>
</g>
<defs>
<clipPath id="clip0_53_130">
<rect width="80" height="80" fill="white" transform="translate(35 35)"/>
</clipPath>
</defs>
</svg>
