<svg width="150" height="150" viewBox="0 0 150 150" fill="none" xmlns="http://www.w3.org/2000/svg">
<circle cx="75" cy="75" r="75" fill="#D9D9D9"/>
<path d="M75 0C64.5025 -1.25181e-07 54.1219 2.20369 44.5298 6.4685C34.9377 10.7333 26.3477 16.9643 19.3155 24.7582C12.2833 32.5522 6.96562 41.7356 3.7064 51.7143C0.447184 61.693 -0.680952 72.2448 0.394977 82.687C1.47091 93.1293 4.72693 103.229 9.95242 112.334C15.1779 121.438 22.2565 129.344 30.7301 135.541C39.2038 141.737 48.8839 146.085 59.1441 148.305C69.4043 150.524 80.0162 150.565 90.2931 148.424L75 75L75 0Z" fill="#FFDE25"/>
<g clip-path="url(#clip0_53_130)">
<path d="M41.6987 106.62L35 35.1336L115 35.2773L107.917 106.62L75.3019 114.866L41.6987 106.62Z" fill="#E9CA32"/>
<path d="M75.302 107.962V41.9418L108.247 42.0375L102.372 101.106L75.302 107.962Z" fill="#FFDE25"/>
<path d="M71.7742 49.7809H63.0645V93.7226L56.2903 92.5958V86.6806L48.2258 85.5539V98.7928L71.7742 104.145V49.7809ZM78.3078 49.7809H102.419L100.806 58.203H87.5123V72.0238H100.806L99.1936 99.9195L78.3078 104.145V95.4126L92.4194 91.1875L93.2342 79.6387L78.3078 81.5259V49.7809Z" fill="white"/>
</g>
<defs>
<clipPath id="clip0_53_130">
<rect width="80" height="80" fill="white" transform="translate(35 35)"/>
</clipPath>
</defs>
</svg>
