<svg width="150" height="150" viewBox="0 0 150 150" fill="none" xmlns="http://www.w3.org/2000/svg">
<circle cx="75" cy="75" r="75" fill="#D9D9D9"/>
<path d="M75 0C56.7319 -2.17844e-07 39.0919 6.66748 25.3911 18.7509C11.6903 30.8343 2.87074 47.5029 0.5879 65.6277C-1.69494 83.7526 2.71592 102.088 12.9925 117.191C23.2691 132.294 38.7049 143.128 56.4024 147.658C74.0999 152.188 92.8423 150.102 109.112 141.794C125.381 133.485 138.058 119.524 144.764 102.531C151.47 85.5387 151.743 66.6826 145.533 49.5026C139.322 32.3227 127.055 18 111.034 9.22322L75 75L75 0Z" fill="#EB3C00"/>
<rect x="35" y="35" width="80" height="80" rx="13" fill="white"/>
<g clip-path="url(#clip0_54_293)">
<path d="M37 97.5028V51.9052L85.5928 37L112 44.0116V105.393L85.5928 112.003L37 97.5028L85.5928 102.357V49.277L53.9012 55.4155V91.3673L37 97.5028Z" fill="#EB3C00"/>
</g>
<defs>
<clipPath id="clip0_54_293">
<rect width="75" height="75" fill="white" transform="translate(37 37)"/>
</clipPath>
</defs>
</svg>
