<svg width="150" height="150" viewBox="0 0 150 150" fill="none" xmlns="http://www.w3.org/2000/svg">
<circle cx="75" cy="75" r="75" fill="#D9D9D9"/>
<path d="M75 0C60.3473 -1.74731e-07 46.0156 4.29212 33.775 12.3462C21.5343 20.4003 11.9211 31.8636 6.12254 45.3201L75 75L75 0Z" fill="#777BB3"/>
<mask id="mask0_53_157" style="mask-type:luminance" maskUnits="userSpaceOnUse" x="24" y="42" width="102" height="63">
<path d="M24.1072 73.3873C24.1072 90.3058 46.8932 104.021 75.0001 104.021C103.107 104.021 125.893 90.3058 125.893 73.3873C125.893 56.4689 103.107 42.7532 75.0001 42.7532C46.8932 42.7532 24.1072 56.4691 24.1072 73.3873Z" fill="white"/>
</mask>
<g mask="url(#mask0_53_157)">
<path d="M24.1072 73.3873C24.1072 90.3058 46.8932 104.021 75.0001 104.021C103.107 104.021 125.893 90.3058 125.893 73.3873C125.893 56.4689 103.107 42.7532 75.0001 42.7532C46.8932 42.7532 24.1072 56.4691 24.1072 73.3873Z" fill="url(#paint0_radial_53_157)"/>
</g>
<mask id="mask1_53_157" style="mask-type:luminance" maskUnits="userSpaceOnUse" x="21" y="39" width="108" height="69">
<path d="M21.9866 39.2652H128.013V107.51H21.9866V39.2652Z" fill="white"/>
</mask>
<g mask="url(#mask1_53_157)">
<path d="M75.0001 101.747C102.009 101.747 123.905 89.0499 123.905 73.3874C123.905 57.7249 102.009 45.028 75.0001 45.028C47.9909 45.028 26.0952 57.7249 26.0952 73.3874C26.0952 89.0499 47.9909 101.747 75.0001 101.747Z" fill="#777BB3"/>
</g>
<mask id="mask2_53_157" style="mask-type:luminance" maskUnits="userSpaceOnUse" x="21" y="39" width="108" height="69">
<path d="M21.9866 39.2652H128.013V107.51H21.9866V39.2652Z" fill="white"/>
</mask>
<g mask="url(#mask2_53_157)">
<path d="M51.7574 76.9034C53.9783 76.9034 55.6362 76.4348 56.6851 75.5111C57.7229 74.597 58.4397 73.0126 58.8154 70.8029C59.1657 68.7375 59.0322 67.2953 58.4189 66.517C57.7918 65.7221 56.4359 65.3189 54.389 65.3189H50.84L48.8723 76.9036H51.7572L51.7574 76.9034ZM40.149 91.1737C39.9842 91.1737 39.8278 91.0894 39.723 90.9436C39.6712 90.8717 39.634 90.7876 39.6139 90.6973C39.5939 90.607 39.5915 90.5127 39.6071 90.4213L44.8215 59.7218C44.846 59.5779 44.9135 59.4482 45.0124 59.3549C45.1113 59.2616 45.2354 59.2106 45.3636 59.2106H56.6021C60.1341 59.2106 62.7631 60.3059 64.4155 62.4727C66.0768 64.6485 66.5898 67.6904 65.9402 71.513C65.6758 73.0704 65.2212 74.5165 64.5891 75.8119C63.9559 77.1084 63.1194 78.3079 62.1022 79.3779C60.8844 80.6821 59.506 81.6279 58.0092 82.1844C56.536 82.7335 54.6443 83.0121 52.386 83.0121H47.8354L46.5358 90.6627C46.5114 90.8066 46.4439 90.9364 46.3451 91.0297C46.2462 91.123 46.122 91.174 45.9939 91.1741H40.149V91.1737Z" fill="black"/>
<path d="M51.2955 65.9506H54.3894C56.8597 65.9506 57.7181 66.5709 58.0096 66.9406C58.4934 67.5543 58.5847 68.8484 58.2738 70.6828C57.9244 72.7365 57.2768 74.1926 56.3487 75.0102C55.3985 75.8473 53.8538 76.2715 51.7579 76.2715H49.5424L51.2955 65.9506ZM56.6024 58.5785H45.3639C45.1076 58.5785 44.8593 58.6806 44.6615 58.8672C44.4637 59.0537 44.3288 59.3132 44.2799 59.6011L39.0654 90.301C39.0344 90.4839 39.0391 90.6725 39.0792 90.8531C39.1193 91.0337 39.1938 91.202 39.2974 91.3458C39.401 91.4896 39.5311 91.6054 39.6784 91.6849C39.8257 91.7644 39.9866 91.8057 40.1494 91.8057H45.9938C46.2502 91.8057 46.4985 91.7037 46.6963 91.5171C46.8941 91.3306 47.0291 91.0711 47.078 90.7831L48.2907 83.6438H52.3863C54.7024 83.6438 56.6521 83.3548 58.181 82.785C59.753 82.2005 61.1998 81.2095 62.4799 79.8396C63.5387 78.7249 64.4126 77.4738 65.0716 76.1205C65.7306 74.7672 66.2074 73.2572 66.4831 71.6336C67.167 67.6097 66.6114 64.3875 64.832 62.0571C63.07 59.749 60.3012 58.5787 56.6027 58.5787M48.2029 77.5355H51.7579C54.1141 77.5355 55.8694 77.0279 57.0224 76.0118C58.1755 74.9957 58.9537 73.2999 59.358 70.9236C59.7445 68.642 59.5686 67.032 58.8297 66.0938C58.0908 65.1557 56.6097 64.6868 54.3898 64.6868H50.3854L48.2031 77.5353M56.6029 59.8423C59.9838 59.8423 62.4502 60.8575 64.0005 62.888C65.5508 64.9185 66.0174 67.7532 65.3989 71.3922C65.1443 72.8913 64.7138 74.2619 64.1076 75.5037C63.5015 76.7456 62.7083 77.8824 61.729 78.9126C60.562 80.1623 59.2656 81.0526 57.839 81.5834C56.4124 82.1152 54.5956 82.38 52.3867 82.38H47.3806L45.9945 90.5419H40.1502L45.3639 59.8423H56.6026" fill="white"/>
<path d="M79.3408 83.0117C79.1759 83.0117 79.0196 82.9274 78.9149 82.7817C78.8101 82.6359 78.7672 82.4447 78.7989 82.2593L81.1054 68.6757C81.3248 67.3839 81.2707 66.4567 80.9531 66.065C80.7587 65.8255 80.1749 65.4238 78.4484 65.4238H74.2696L71.3695 82.5001C71.345 82.6441 71.2776 82.7738 71.1787 82.8671C71.0798 82.9605 70.9556 83.0115 70.8274 83.0115H65.029C64.9476 83.0115 64.8672 82.9909 64.7935 82.9511C64.7198 82.9114 64.6548 82.8535 64.6029 82.7816C64.5511 82.7097 64.5139 82.6255 64.4938 82.5352C64.4738 82.4449 64.4714 82.3506 64.4869 82.2591L69.7014 51.5597C69.7259 51.4157 69.7933 51.286 69.8923 51.1927C69.9912 51.0995 70.1153 51.0485 70.2435 51.0485H76.0418C76.1233 51.0485 76.2037 51.0691 76.2774 51.1088C76.351 51.1486 76.4161 51.2065 76.4679 51.2784C76.5197 51.3503 76.557 51.4344 76.5771 51.5248C76.5971 51.6151 76.5995 51.7094 76.5839 51.8008L75.3256 59.2104H79.8211C83.2458 59.2104 85.5679 59.9013 86.9208 61.3226C88.3014 62.7726 88.7297 65.0908 88.1996 68.2145L85.7735 82.5005C85.749 82.6445 85.6816 82.7743 85.5827 82.8676C85.4838 82.9609 85.3596 83.0119 85.2314 83.0119H79.341L79.3408 83.0117Z" fill="black"/>
<path d="M76.0418 50.4166H70.2435C69.9871 50.4166 69.7388 50.5186 69.5409 50.7052C69.3431 50.8917 69.2082 51.1512 69.1593 51.4392L63.9448 82.1386C63.9138 82.3216 63.9185 82.5102 63.9586 82.6908C63.9987 82.8715 64.0732 83.0397 64.1768 83.1835C64.2805 83.3273 64.4106 83.4431 64.5579 83.5226C64.7053 83.6021 64.8661 83.6434 65.029 83.6434H70.8274C71.0837 83.6434 71.3321 83.5414 71.5299 83.3548C71.7277 83.1682 71.8626 82.9087 71.9116 82.6208L74.7248 66.0557H78.4486C80.1721 66.0557 80.5338 66.477 80.5483 66.4951C80.6529 66.6236 80.7904 67.2196 80.5634 68.555L78.257 82.1386C78.2259 82.3216 78.2306 82.5102 78.2707 82.6908C78.3108 82.8715 78.3854 83.0397 78.489 83.1835C78.5926 83.3273 78.7227 83.4431 78.8701 83.5226C79.0174 83.6021 79.1783 83.6434 79.3412 83.6434H85.2316C85.4879 83.6434 85.7363 83.5414 85.9341 83.3548C86.1319 83.1682 86.2668 82.9087 86.3157 82.6208L88.7418 68.3347C89.3112 64.9815 88.8241 62.4657 87.295 60.8573C85.8357 59.3239 83.3912 58.5783 79.8216 58.5783H75.9958L77.1266 51.9213C77.1577 51.7383 77.153 51.5498 77.1129 51.3691C77.0728 51.1884 76.9983 51.0201 76.8946 50.8763C76.791 50.7324 76.6609 50.6166 76.5135 50.5371C76.3662 50.4576 76.2053 50.4164 76.0424 50.4164M76.0424 51.6802L74.6563 59.8421H79.8218C83.072 59.8421 85.3138 60.4913 86.5479 61.7879C87.7819 63.0845 88.1512 65.1875 87.6582 68.0938L85.2321 82.3796H79.3417L81.6482 68.7964C81.9107 67.2512 81.8142 66.1972 81.3584 65.6353C80.9027 65.0733 79.9326 64.7919 78.4491 64.7919H73.8145L70.8277 82.3796H65.0294L70.2438 51.6802H76.0422" fill="white"/>
<path d="M97.3742 76.9034C99.595 76.9034 101.253 76.4348 102.302 75.5111C103.34 74.597 104.056 73.0131 104.432 70.8029C104.783 68.7375 104.649 67.2953 104.036 66.517C103.408 65.7221 102.053 65.3189 100.006 65.3189H96.4567L94.489 76.9036H97.374L97.3742 76.9034ZM85.7661 91.1737C85.6013 91.1737 85.4449 91.0894 85.3401 90.9436C85.2883 90.8718 85.251 90.7877 85.2309 90.6973C85.2108 90.607 85.2085 90.5128 85.224 90.4213L90.4384 59.7218C90.4629 59.5779 90.5304 59.4481 90.6293 59.3548C90.7283 59.2616 90.8525 59.2106 90.9807 59.2106H102.219C105.751 59.2106 108.38 60.3059 110.033 62.4727C111.694 64.6485 112.207 67.69 111.557 71.513C111.293 73.0704 110.838 74.5165 110.206 75.8119C109.573 77.1084 108.736 78.3079 107.719 79.3779C106.501 80.6821 105.123 81.6279 103.626 82.1844C102.153 82.7335 100.261 83.0121 98.0028 83.0121H93.4515L92.1525 90.6627C92.1281 90.8067 92.0606 90.9365 91.9616 91.0298C91.8627 91.1231 91.7385 91.1741 91.6102 91.1741H85.7659L85.7661 91.1737Z" fill="black"/>
<path d="M96.912 65.9506H100.006C102.476 65.9506 103.335 66.5709 103.626 66.9406C104.11 67.5543 104.201 68.8484 103.89 70.6826C103.541 72.7363 102.893 74.1926 101.965 75.0102C101.015 75.8473 99.4703 76.2715 97.3744 76.2715H95.1595L96.912 65.9506ZM102.219 58.5785H90.9804C90.7241 58.5785 90.4758 58.6806 90.278 58.8672C90.0802 59.0537 89.9453 59.3132 89.8964 59.6011L84.6821 90.301C84.6511 90.4839 84.6558 90.6725 84.6959 90.8531C84.736 91.0337 84.8105 91.202 84.9141 91.3458C85.0177 91.4896 85.1478 91.6054 85.2951 91.6849C85.4424 91.7644 85.6033 91.8057 85.7661 91.8057H91.6105C91.8669 91.8057 92.1152 91.7037 92.313 91.5171C92.5108 91.3306 92.6458 91.0711 92.6947 90.7831L93.9072 83.6438H98.0029C100.319 83.6438 102.269 83.3548 103.798 82.785C105.37 82.2005 106.816 81.2095 108.097 79.8392C109.156 78.7249 110.027 77.4738 110.688 76.1205C111.349 74.7672 111.824 73.2572 112.1 71.6336C112.783 67.6095 112.228 64.3873 110.448 62.0569C108.687 59.749 105.918 58.5787 102.219 58.5787M93.8196 77.5355H97.3744C99.7306 77.5355 101.486 77.0279 102.639 76.0118C103.792 74.9957 104.57 73.2999 104.974 70.9236C105.361 68.642 105.185 67.032 104.446 66.0938C103.707 65.1557 102.226 64.6868 100.006 64.6868H96.002L93.8198 77.5353M102.219 59.8423C105.6 59.8423 108.067 60.8575 109.617 62.888C111.167 64.9185 111.634 67.7532 111.015 71.3922C110.761 72.8913 110.33 74.2619 109.724 75.5037C109.118 76.7456 108.325 77.8824 107.346 78.9126C106.179 80.1623 104.882 81.0526 103.456 81.5834C102.029 82.1152 100.212 82.38 98.0032 82.38H92.9971L91.6111 90.5419H85.7667L90.9812 59.8425H102.22" fill="white"/>
</g>
<defs>
<radialGradient id="paint0_radial_53_157" cx="0" cy="0" r="1" gradientUnits="userSpaceOnUse" gradientTransform="translate(54.6635 53.5234) scale(66.8296 76.4712)">
<stop stop-color="#AEB2D5"/>
<stop offset="0.3" stop-color="#AEB2D5"/>
<stop offset="0.75" stop-color="#484C89"/>
<stop offset="1" stop-color="#484C89"/>
</radialGradient>
</defs>
</svg>
