<svg width="150" height="150" viewBox="0 0 150 150" fill="none" xmlns="http://www.w3.org/2000/svg">
<circle cx="75" cy="75" r="75" fill="#D9D9D9"/>
<path d="M75 0C60.0242 -1.78584e-07 45.3914 4.48331 32.986 12.8725C20.5806 21.2618 10.9707 33.1727 5.394 47.0714L75 75L75 0Z" fill="#9999FF"/>
<g clip-path="url(#clip0_54_288)">
<path d="M49.1667 35.0082H100.833C108.667 35.0082 115 41.5026 115 49.5351V100.465C115 108.497 108.667 114.992 100.833 114.992H49.1667C41.3333 114.992 35 108.497 35 100.465V49.5351C35 41.5026 41.3333 35.0082 49.1667 35.0082Z" fill="#00005B"/>
<path d="M54 91.0651V55.8586C54 55.6193 54.1 55.4826 54.3333 55.4826C54.9 55.4826 55.4333 55.4826 56.2 55.4484C57 55.4143 57.8333 55.4143 58.7333 55.3801C59.6333 55.3459 60.6 55.3459 61.6333 55.3117C62.6667 55.2775 63.6667 55.2775 64.6667 55.2775C67.4 55.2775 69.6667 55.6193 71.5333 56.3371C73.2 56.9182 74.7333 57.8753 76 59.14C77.0667 60.2338 77.9 61.5668 78.4333 63.0366C78.9333 64.4722 79.2 65.942 79.2 67.4802C79.2 70.4197 78.5333 72.8466 77.2 74.7607C75.8667 76.6748 74 78.1104 71.8333 78.9308C69.5667 79.7853 67.0667 80.0929 64.3333 80.0929C63.5333 80.0929 63 80.0929 62.6667 80.0588C62.3333 80.0246 61.8667 80.0246 61.2333 80.0246V90.9967C61.2667 91.236 61.1 91.441 60.8667 91.4752H54.4C54.1333 91.4752 54 91.3385 54 91.0309V91.0651ZM61.2667 62.1137V73.5986C61.7333 73.6327 62.1667 73.6669 62.5667 73.6669H64.3333C65.6333 73.6669 66.9333 73.4618 68.1667 73.0517C69.2333 72.744 70.1667 72.0946 70.9 71.2401C71.6 70.3855 71.9333 69.2234 71.9333 67.7194C71.9667 66.6598 71.7 65.6002 71.1667 64.6773C70.6 63.7886 69.8 63.105 68.8333 62.729C67.6 62.2163 66.2667 62.0112 64.9 62.0454C64.0333 62.0454 63.2667 62.0454 62.6333 62.0795C61.9667 62.0454 61.5 62.0796 61.2667 62.1137ZM84 64.1304H89.8333C90.1667 64.1304 90.4333 64.3697 90.5333 64.6773C90.6333 64.9508 90.7 65.2242 90.7333 65.5318C90.8 65.8736 90.8667 66.2496 90.9 66.5914C90.9333 66.9674 90.9667 67.3776 90.9667 67.822C91.9667 66.6256 93.1667 65.6344 94.5333 64.8824C96.0667 63.9937 97.8333 63.5493 99.6 63.5493C99.8333 63.5152 100.033 63.6861 100.067 63.9253V70.7273C100.067 71.0008 99.9 71.1033 99.5333 71.1033C98.3333 71.0692 97.1 71.1717 95.9333 71.4452C94.9667 71.6502 94.0333 71.9579 93.1333 72.368C92.5 72.6757 91.9 73.0858 91.4333 73.6327V91.0651C91.4333 91.4069 91.3 91.5436 91 91.5436H84.4333C84.1667 91.5778 83.9333 91.4069 83.9 91.1334V72.0604C83.9 71.2401 83.9 70.3855 83.8667 69.4968C83.8333 68.6081 83.8333 67.7194 83.8 66.8307C83.8 66.0445 83.7333 65.2926 83.6667 64.5064C83.6333 64.3355 83.7333 64.1646 83.9 64.1304C83.9 64.0962 83.9667 64.0962 84 64.1304Z" fill="#9999FF"/>
</g>
<defs>
<clipPath id="clip0_54_288">
<rect width="80" height="80" fill="white" transform="translate(35 35)"/>
</clipPath>
</defs>
</svg>
