<svg width="150" height="150" viewBox="0 0 150 150" fill="none" xmlns="http://www.w3.org/2000/svg">
<circle cx="75" cy="75" r="75" fill="#D9D9D9"/>
<path d="M75 0C62.8568 -1.44807e-07 50.8951 2.94854 40.1431 8.59221C29.391 14.2359 20.1701 22.4059 13.2728 32.4002L75 75L75 0Z" fill="#31A8FF"/>
<g clip-path="url(#clip0_54_196)">
<path d="M100.833 35H49.1667C41.3426 35 35 41.5053 35 49.5299V100.47C35 108.495 41.3426 115 49.1667 115H100.833C108.657 115 115 108.495 115 100.47V49.5299C115 41.5053 108.657 35 100.833 35Z" fill="#001E36"/>
<path d="M53.0137 91.1009V55.9287C53.0137 55.6723 53.1211 55.5434 53.3358 55.5434C53.9076 55.5434 54.4296 55.5348 55.2171 55.5158C56.0037 55.4978 56.8534 55.4794 57.7662 55.4608C58.6787 55.4427 59.6447 55.4243 60.6643 55.4057C61.6839 55.3877 62.6946 55.3785 63.6964 55.3782C66.415 55.3782 68.7048 55.7268 70.5657 56.424C72.2444 57.0064 73.7753 57.9654 75.047 59.2312C76.125 60.3283 76.958 61.6523 77.4887 63.1117C77.9908 64.532 78.2452 66.0319 78.2402 67.5426C78.2402 70.4788 77.5783 72.9007 76.2545 74.8083C74.922 76.7237 73.0489 78.1741 70.8878 78.964C68.6337 79.8266 66.129 80.1192 63.3745 80.1192C62.587 80.1192 62.0325 80.11 61.7107 80.0916C61.3888 80.0735 60.9058 80.0644 60.2618 80.0641V91.0459C60.2712 91.1132 60.2652 91.1818 60.2442 91.2463C60.2232 91.3108 60.1879 91.3694 60.141 91.4175C60.0942 91.4655 60.037 91.5017 59.9742 91.5232C59.9113 91.5447 59.8444 91.5509 59.7788 91.5413H53.3893C53.1387 91.5413 53.0137 91.3951 53.0137 91.1009ZM60.2618 62.1485V73.6202C60.7263 73.6572 61.1557 73.6755 61.5497 73.6752H63.3207C64.6238 73.6708 65.9183 73.4589 67.158 73.047C68.2212 72.7231 69.1712 72.0926 69.895 71.2306C70.5926 70.3869 70.9414 69.2126 70.9415 67.7078C70.9698 66.6431 70.6997 65.5924 70.1632 64.6804C69.5992 63.7986 68.7841 63.1163 67.8287 62.7264C66.5813 62.2291 65.2488 61.9951 63.9111 62.0384C63.0524 62.0384 62.2921 62.0476 61.6303 62.0659C60.9679 62.0848 60.5117 62.1124 60.2618 62.1485Z" fill="#31A8FF"/>
<path d="M98.9903 71.5343C97.9817 71.0028 96.9075 70.614 95.7971 70.3784C94.5736 70.0905 93.3226 69.9428 92.0673 69.938C91.3882 69.9192 90.7102 70.0026 90.0548 70.1858C89.6376 70.281 89.2668 70.5248 89.0082 70.8738C88.8333 71.1529 88.7402 71.4777 88.74 71.8095C88.7498 72.1314 88.8629 72.441 89.0619 72.6902C89.3754 73.0663 89.7584 73.375 90.1889 73.5984C90.9541 74.021 91.7425 74.3978 92.5502 74.7268C94.3514 75.3452 96.0724 76.1862 97.6754 77.2312C98.7674 77.9381 99.671 78.9122 100.305 80.0659C100.838 81.1584 101.105 82.3672 101.083 83.5887C101.115 85.2016 100.666 86.7861 99.7953 88.1297C98.8632 89.4936 97.5684 90.554 96.0653 91.1845C94.4369 91.9182 92.4245 92.2852 90.0279 92.2855C88.5055 92.3012 86.9856 92.1536 85.4931 91.8451C84.3171 91.6239 83.1725 91.2542 82.0852 90.7442C81.9679 90.6821 81.8702 90.587 81.8037 90.47C81.7372 90.353 81.7045 90.219 81.7095 90.0837V84.1391C81.7031 84.0809 81.7122 84.022 81.7358 83.9686C81.7595 83.9153 81.7968 83.8696 81.8438 83.8363C81.8899 83.8096 81.9428 83.7979 81.9956 83.8029C82.0483 83.8078 82.0983 83.8291 82.1389 83.8639C83.4229 84.6404 84.8171 85.2068 86.2712 85.5427C87.5529 85.8722 88.8676 86.0476 90.1889 86.0656C91.4408 86.0656 92.3621 85.9005 92.9527 85.5702C93.2194 85.445 93.445 85.2432 93.6022 84.9892C93.7594 84.7352 93.8414 84.4399 93.8383 84.1391C93.8383 83.6627 93.57 83.204 93.0333 82.763C92.4967 82.3227 91.4054 81.7906 89.7595 81.1667C88.0744 80.5652 86.4767 79.732 85.01 78.6899C83.961 77.9416 83.0972 76.9519 82.4877 75.8001C81.9599 74.7155 81.6931 73.517 81.7096 72.3049C81.7066 70.8485 82.0966 69.4197 82.8365 68.1767C83.6802 66.8079 84.8916 65.7183 86.325 65.0393C87.8989 64.2326 89.8666 63.8289 92.2283 63.8283C93.6114 63.8169 94.9932 63.9181 96.3606 64.1311C97.3509 64.2599 98.319 64.5285 99.2375 64.9292C99.3104 64.9506 99.3774 64.9891 99.4332 65.0417C99.4891 65.0942 99.5323 65.1593 99.5595 65.2319C99.5957 65.3663 99.6138 65.5052 99.6132 65.6447V71.204C99.6169 71.2687 99.604 71.3333 99.5757 71.3912C99.5475 71.4492 99.5049 71.4985 99.4522 71.5343C99.3804 71.5709 99.3014 71.59 99.2212 71.59C99.1411 71.59 99.0621 71.5709 98.9903 71.5343Z" fill="#31A8FF"/>
</g>
<defs>
<clipPath id="clip0_54_196">
<rect width="80" height="80" fill="white" transform="translate(35 35)"/>
</clipPath>
</defs>
</svg>
