<svg width="150" height="150" viewBox="0 0 150 150" fill="none" xmlns="http://www.w3.org/2000/svg">
<circle cx="75" cy="75" r="75" fill="#D9D9D9"/>
<path d="M75 0C57.4648 -2.09106e-07 40.4838 6.14422 27.0085 17.3648C13.5332 28.5853 4.41549 44.1729 1.24002 61.4182C-1.93545 78.6635 1.03209 96.4764 9.62689 111.761C18.2217 127.045 31.9003 138.835 48.2855 145.081L75 75L75 0Z" fill="#4A5052"/>
<path d="M99.1656 63.2375C98.3667 62.9646 97.562 62.7104 96.7516 62.475C96.8859 61.9281 97.0099 61.3781 97.1234 60.825C98.9516 51.9344 97.7563 44.7719 93.6766 42.4141C89.7703 40.1516 83.3641 42.5094 76.9016 48.1469C76.2662 48.7031 75.6438 49.276 75.0344 49.8656C74.6281 49.474 74.2115 49.0906 73.7844 48.7156C67.0109 42.6875 60.2219 40.1484 56.1469 42.5141C52.2406 44.7812 51.0797 51.5141 52.725 59.9406C52.8896 60.774 53.0745 61.6036 53.2797 62.4297C52.3188 62.7031 51.3906 62.9953 50.5031 63.3047C42.5719 66.0781 37.5 70.4266 37.5 74.9359C37.5 79.5953 42.9437 84.2672 51.2141 87.1C51.8849 87.3281 52.562 87.5401 53.2453 87.7359C53.0234 88.6203 52.8271 89.5146 52.6563 90.4187C51.0938 98.7 52.3125 105.273 56.2109 107.527C60.2375 109.853 66.9922 107.462 73.5766 101.697C74.0974 101.241 74.6182 100.759 75.1391 100.252C75.7974 100.888 76.4745 101.506 77.1703 102.105C83.5453 107.602 89.8406 109.822 93.7328 107.562C97.7563 105.228 99.0641 98.1656 97.3656 89.5734C97.2354 88.9172 97.0854 88.2474 96.9156 87.5641C97.3906 87.4234 97.8557 87.2781 98.3109 87.1281C106.905 84.2734 112.503 79.6578 112.503 74.9406C112.5 70.4094 107.266 66.0328 99.1656 63.2375ZM79.0094 50.5687C84.5453 45.7391 89.7203 43.8328 92.0797 45.1953C94.5906 46.6469 95.5672 52.5 93.9891 60.1766C93.8849 60.6766 93.7724 61.175 93.6516 61.6719C90.3479 60.9204 86.9977 60.3901 83.6234 60.0844C81.6915 57.3014 79.5736 54.6521 77.2844 52.1547C77.8448 51.6109 78.4188 51.0823 79.0063 50.5687H79.0094ZM59.6453 78.7891C60.3234 80.1016 61.0323 81.3979 61.7719 82.6781C62.525 83.9844 63.3099 85.2714 64.1266 86.5391C61.8048 86.2866 59.4976 85.9148 57.2141 85.425C57.8766 83.2812 58.6922 81.0547 59.6453 78.7891ZM59.6453 71.2375C58.7078 69.0203 57.9141 66.8391 57.2625 64.7328C59.4031 64.2531 61.6844 63.8609 64.0625 63.5641C63.2656 64.8078 62.499 66.0698 61.7625 67.35C61.026 68.6302 60.3188 69.926 59.6406 71.2375H59.6453ZM61.3484 75.0141C62.3359 72.9547 63.3995 70.9349 64.5391 68.9547C65.6776 66.9755 66.8896 65.0417 68.175 63.1531C70.4063 62.9844 72.6938 62.8953 75.0047 62.8953C77.3156 62.8953 79.6172 62.9844 81.8469 63.1547C83.1188 65.0391 84.3234 66.9661 85.4609 68.9359C86.5984 70.9057 87.676 72.9161 88.6938 74.9672C87.6896 77.0338 86.6146 79.062 85.4688 81.0516C84.3323 83.0307 83.1344 84.9703 81.875 86.8703C79.6484 87.0266 77.3438 87.1125 75 87.1125C72.6563 87.1125 70.3953 87.0391 68.2094 86.8969C66.9146 85.0021 65.6927 83.0599 64.5438 81.0703C63.3948 79.0807 62.3281 77.062 61.3438 75.0141H61.3484ZM88.2422 82.6562C88.9974 81.3458 89.7224 80.0182 90.4172 78.6734C91.3696 80.8329 92.2103 83.04 92.9359 85.2859C90.6256 85.8062 88.2896 86.2052 85.9375 86.4812C86.7313 85.2219 87.4995 83.9469 88.2422 82.6562ZM90.3859 71.2391C89.6943 69.9213 88.975 68.6193 88.2281 67.3328C87.499 66.0641 86.7391 64.8109 85.9484 63.5734C88.3406 63.8766 90.6359 64.2797 92.7875 64.7719C92.0957 66.9664 91.2942 69.1249 90.3859 71.2391ZM75.0359 54.45C76.5962 56.1548 78.0694 57.9373 79.45 59.7906C76.4969 59.65 73.5417 59.65 70.5844 59.7906C72.0422 57.8625 73.5344 56.0734 75.0359 54.45ZM57.7594 45.2906C60.2688 43.8344 65.8172 45.9156 71.6656 51.1141C72.0391 51.4469 72.4156 51.7953 72.7906 52.1562C70.4896 54.6533 68.3568 57.3003 66.4063 60.0797C63.0395 60.383 59.6959 60.905 56.3969 61.6422C56.2063 60.8755 56.0344 60.1036 55.8813 59.3266C54.4672 52.1031 55.4031 46.6578 57.7594 45.2906ZM54.1016 84.6422C53.4766 84.4641 52.8594 84.2708 52.25 84.0625C48.5938 82.8125 45.5734 81.1812 43.5 79.4047C41.6438 77.8125 40.7031 76.2234 40.7031 74.9359C40.7031 72.2 44.775 68.7094 51.5656 66.3422C52.4188 66.0453 53.2792 65.774 54.1469 65.5281C55.1554 68.7692 56.3768 71.9402 57.8031 75.0203C56.3598 78.143 55.1233 81.3573 54.1016 84.6422ZM71.4656 99.2781C68.5547 101.828 65.6391 103.636 63.0688 104.547C60.7594 105.364 58.9203 105.387 57.8094 104.745C55.4438 103.378 54.4594 98.0984 55.8016 91.0172C55.9609 90.1839 56.1432 89.3505 56.3484 88.5172C59.6805 89.235 63.0576 89.7252 66.4563 89.9844C68.4259 92.7783 70.5763 95.4402 72.8938 97.9531C72.4281 98.4109 71.9516 98.8516 71.4656 99.2781ZM75.125 95.65C73.6063 94.0078 72.0906 92.1906 70.6125 90.2375C72.049 90.2937 73.5115 90.3219 75 90.3219C76.5281 90.3219 78.0406 90.2891 79.5313 90.2219C78.1557 92.1049 76.685 93.9166 75.125 95.65ZM94.5813 100.117C94.1344 102.53 93.2359 104.139 92.125 104.783C89.7609 106.155 84.7063 104.372 79.2563 99.6703C78.6313 99.1328 78.0063 98.5563 77.3703 97.9516C79.6426 95.4289 81.7427 92.7562 83.6563 89.9516C87.0737 89.662 90.4672 89.1373 93.8125 88.3813C93.9656 89 94.101 89.6062 94.2188 90.2C94.9703 93.9969 95.0781 97.4312 94.5813 100.117ZM97.3 84.0797C96.8906 84.2156 96.4688 84.3469 96.0406 84.475C94.9917 81.2187 93.7226 78.0374 92.2422 74.9531C93.6671 71.91 94.8864 68.7749 95.8922 65.5687C96.6594 65.7922 97.4047 66.0266 98.1219 66.275C105.063 68.6687 109.297 72.2125 109.297 74.9359C109.297 77.8422 104.723 81.6141 97.3 84.0797Z" fill="#5ED4F3"/>
<path d="M75.0001 81.6485C76.3299 81.6528 77.631 81.2624 78.7388 80.5268C79.8466 79.7912 80.7111 78.7434 81.223 77.5161C81.7349 76.2888 81.8711 74.9372 81.6143 73.6324C81.3575 72.3277 80.7194 71.1285 79.7806 70.1866C78.8418 69.2448 77.6447 68.6027 76.3408 68.3417C75.0369 68.0807 73.6849 68.2125 72.4559 68.7203C71.2269 69.2282 70.1763 70.0894 69.4371 71.1947C68.6978 72.3001 68.3032 73.5999 68.3032 74.9297C68.3014 75.8107 68.4732 76.6834 68.8088 77.498C69.1444 78.3126 69.6373 79.053 70.2593 79.677C70.8812 80.301 71.62 80.7962 72.4335 81.1345C73.247 81.4728 74.1191 81.6474 75.0001 81.6485Z" fill="#5ED4F3"/>
</svg>
