<svg width="150" height="150" viewBox="0 0 150 150" fill="none" xmlns="http://www.w3.org/2000/svg">
<circle cx="75" cy="75" r="75" fill="#D9D9D9"/>
<path d="M75 0C59.6012 -1.83629e-07 44.5755 4.73995 31.9641 13.576C19.3526 22.412 9.76666 34.9159 4.50828 49.3891C-0.750094 63.8623 -1.426 79.6034 2.57237 94.4741C6.57075 109.345 15.0496 122.624 26.8572 132.509C38.6648 142.393 53.2288 148.404 68.571 149.724C83.9132 151.044 99.2898 147.609 112.612 139.887C125.935 132.164 136.557 120.528 143.037 106.559C149.517 92.59 151.539 76.9648 148.83 61.8061L75 75L75 0Z" fill="#D06397"/>
<g clip-path="url(#clip0_53_124)">
<path fill-rule="evenodd" clip-rule="evenodd" d="M74.9551 35.4396C96.7791 35.4396 114.471 53.1312 114.471 74.9552C114.471 96.7792 96.7791 114.471 74.9551 114.471C53.131 114.471 35.4395 96.7792 35.4395 74.9552C35.4395 53.1312 53.131 35.4396 74.9551 35.4396Z" fill="#D06397"/>
<path d="M99.7419 52.3531C97.9523 45.3352 86.3154 43.0283 75.3019 46.9404C68.7476 49.2692 61.6515 52.9239 56.5504 57.6956C50.4843 63.3692 49.5167 68.3078 49.9153 70.3714C51.3221 77.6528 61.2985 82.4122 65.3993 85.9432V85.9642C64.1901 86.5596 55.3386 91.0389 53.2671 95.6183C51.0815 100.45 53.6149 103.917 55.2921 104.383C60.4888 105.829 65.8226 103.228 68.6888 98.9535C71.4548 94.828 71.2239 89.5005 70.0226 86.8503C71.6805 86.413 73.6133 86.2171 76.0703 86.5034C83.0022 87.313 84.3624 91.6413 84.1016 93.4529C83.8417 95.2645 82.3875 96.2603 81.9019 96.5606C81.4154 96.8618 81.267 96.9654 81.3083 97.1893C81.3671 97.5142 81.5919 97.5019 82.0064 97.4317C82.5772 97.3351 85.6462 95.9582 85.7771 92.6143C85.9439 88.3694 81.8756 83.6205 74.6723 83.7443C71.706 83.7953 69.84 84.078 68.4929 84.5794C68.3937 84.4662 68.2918 84.3529 68.1873 84.2414C63.7344 79.4898 55.502 76.1292 55.8506 69.7418C55.9779 67.42 56.7849 61.3047 71.6691 53.8881C83.8619 47.8123 93.6231 49.4843 95.31 53.19C97.7196 58.4833 90.0931 68.3227 77.4305 69.7418C72.6061 70.2827 70.0657 68.4132 69.4343 67.7168C68.7687 66.9836 68.6703 66.9502 68.4218 67.0881C68.017 67.312 68.2734 67.9592 68.4218 68.3455C68.8003 69.329 70.351 71.0739 72.996 71.9423C75.323 72.7063 80.9869 73.1252 87.8371 70.4759C95.5102 67.5087 101.502 59.2534 99.7419 52.3531ZM67.102 88.1183C67.6772 90.2451 67.6139 92.2279 67.0203 94.0237C66.9545 94.223 66.8816 94.4206 66.8025 94.6155C66.7235 94.8105 66.6383 95.0028 66.547 95.1933C66.0886 96.1435 65.4748 97.033 64.7223 97.8541C62.426 100.358 59.2182 101.306 57.843 100.508C56.3572 99.6463 57.1019 96.1154 59.7635 93.301C62.6271 90.2741 66.7472 88.3273 66.7472 88.3273L66.7411 88.315C66.8596 88.2509 66.9799 88.185 67.102 88.1183Z" fill="white"/>
</g>
<rect x="35.5" y="35.5" width="79" height="79" rx="39.5" stroke="white"/>
<defs>
<clipPath id="clip0_53_124">
<rect x="35" y="35" width="80" height="80" rx="40" fill="white"/>
</clipPath>
</defs>
</svg>
