<svg width="150" height="150" viewBox="0 0 150 150" fill="none" xmlns="http://www.w3.org/2000/svg">
<circle cx="75" cy="75" r="75" fill="#D9D9D9"/>
<circle cx="75" cy="75" r="75" fill="#3C99D4"/>
<rect x="35" y="35" width="80" height="80" rx="18" fill="white"/>
<path d="M37.1432 63.8105C37.1432 63.8105 35.3678 62.5073 37.4983 60.7671L42.4621 56.2472C42.4621 56.2472 43.8824 54.7255 45.3841 56.0514L91.1897 91.3667V108.301C91.1897 108.301 91.1675 110.96 87.8164 110.667L37.1432 63.8105Z" fill="#2489CA"/>
<path d="M48.9497 74.726L37.1432 85.6566C37.1432 85.6566 35.93 86.5757 37.1432 88.2179L42.6248 93.2952C42.6248 93.2952 43.9268 94.719 45.8501 93.0994L58.3668 83.4343L48.9497 74.726Z" fill="#1070B3"/>
<path d="M69.678 74.8164L91.3307 57.9798L91.1901 41.1357C91.1901 41.1357 90.2654 37.4595 87.1806 39.3729L58.3672 66.0779L69.678 74.8164Z" fill="#0877B9"/>
<path d="M87.8169 110.689C89.0744 112 90.5983 111.571 90.5983 111.571L107.472 103.103C109.632 101.604 109.329 99.7436 109.329 99.7436V49.1811C109.329 46.9588 107.095 46.1904 107.095 46.1904L92.4699 39.0113C89.2742 37 87.1807 39.3729 87.1807 39.3729C87.1807 39.3729 89.8734 37.3992 91.1901 41.1357V107.992C91.1901 108.452 91.094 108.904 90.9016 109.311C90.517 110.102 89.681 110.84 87.6763 110.531L87.8169 110.689Z" fill="#3C99D4"/>
</svg>
