<svg width="150" height="150" viewBox="0 0 150 150" fill="none" xmlns="http://www.w3.org/2000/svg">
<circle cx="75" cy="75" r="75" fill="#D9D9D9"/>
<path d="M75 0C59.7361 -1.8202e-07 44.8356 4.65732 32.2886 13.3499C19.7417 22.0424 10.1457 34.3564 4.78234 48.647C-0.580985 62.9376 -1.45629 78.5245 2.27333 93.3257C6.00296 108.127 14.1599 121.438 25.6548 131.481C37.1496 141.523 51.435 147.82 66.603 149.528C81.7709 151.237 97.0992 148.278 110.54 141.044C123.982 133.811 134.896 122.649 141.826 109.049C148.755 95.4486 151.37 80.0577 149.321 64.932L75 75L75 0Z" fill="#D06397"/>
</svg>
